<?xml version="1.0" encoding="utf-8"?>
<!-- Generator: Adobe Illustrator 16.0.0, SVG Export Plug-In . SVG Version: 6.00 Build 0)  -->
<!DOCTYPE svg PUBLIC "-//W3C//DTD SVG 1.1//EN" "http://www.w3.org/Graphics/SVG/1.1/DTD/svg11.dtd">
<svg version="1.1" id="LOGOS" xmlns="http://www.w3.org/2000/svg" xmlns:xlink="http://www.w3.org/1999/xlink" x="0px" y="0px"
	 width="1374px" height="322px" viewBox="10.75 96.455 1374 322" enable-background="new 10.75 96.455 1374 322"
	 xml:space="preserve">
<path d="M287.264,247.43v70.275h-17.098v-92.659h23.349l35.115,70.345v-70.345h17.098v92.659h-23.349L287.264,247.43z"/>
<path d="M387.415,319.038c-23.211,0-29.462-12.8-29.462-26.703v-17.099c0-13.788,6.251-26.681,29.462-26.681
	s29.485,12.777,29.485,26.681v17.19C416.899,306.215,410.648,319.038,387.415,319.038z M387.415,263.011
	c-9.032,0-12.502,4.021-12.502,11.674v18.201c0,7.652,3.47,11.697,12.502,11.697c9.031,0,12.456-4.045,12.456-11.697v-18.201
	C399.871,267.148,396.47,263.011,387.415,263.011L387.415,263.011z"/>
<path d="M468.469,317.705v-47.341c0-3.607-1.539-5.423-5.423-5.423s-11.491,2.505-17.649,5.699v47.064h-16.96v-67.771h12.915
	l1.678,5.699c8.449-4.217,17.685-6.627,27.117-7.078c6.527,0,10.549,2.643,12.777,7.216c8.467-4.321,17.76-6.782,27.256-7.216
	c11.261,0,15.282,7.905,15.282,20.017v49.133h-16.96v-47.341c0-3.607-1.517-5.423-5.423-5.423
	c-6.216,0.651-12.228,2.593-17.65,5.699v47.064H468.469z"/>
<path d="M589.557,317.705h-13.903l-1.265-4.596c-6.002,3.893-13.001,5.967-20.154,5.975c-12.363,0-17.649-8.479-17.649-20.154
	c0-13.788,5.976-19.051,19.741-19.051h16.271v-7.147c0-7.491-2.092-10.135-12.938-10.135c-6.312,0.067-12.601,0.761-18.775,2.068
	l-2.068-12.915c7.56-2.096,15.366-3.17,23.211-3.194c21.257,0,27.577,7.492,27.577,24.452L589.557,317.705z M572.597,292.128
	h-12.525c-5.561,0-7.078,1.539-7.078,6.687c0,4.597,1.518,6.895,6.895,6.895c4.49-0.068,8.891-1.262,12.801-3.47L572.597,292.128z"
	/>
<path d="M599.967,272.456c0-15.007,6.665-23.9,22.384-23.9c6.076,0.06,12.134,0.706,18.086,1.931v-28.221l16.96-2.299v97.738
	h-13.489l-1.678-5.699c-6.172,4.627-13.683,7.119-21.396,7.102c-13.628,0-20.867-8.066-20.867-23.51V272.456z M640.437,264.85
	c-4.938-1.097-9.973-1.697-15.029-1.793c-6.113,0-8.48,2.919-8.48,9.031v23.878c0,5.561,2.092,8.617,8.342,8.617
	c5.619-0.203,10.988-2.375,15.168-6.136V264.85z"/>
<path fill="#00CA8E" d="M140.506,194.045L73.54,232.676v77.285l66.921,38.631l66.967-38.631v-77.285L140.506,194.045z
	 M170.382,279.074l-17.833,10.296l-21.556-11.789v24.635l-20.247,12.847v-51.478l16.087-9.836l22.292,11.743v-25.141l21.258-12.777
	V279.074z"/>
<path d="M288.229,202.364v-13.007h-11.881v13.007h-6.067v-31.231h6.067v13.1h11.881v-13.1h6.09v31.231H288.229z M316.564,202.364
	h-4.826l-0.437-1.539c-2.067,1.296-4.455,1.988-6.895,1.999c-4.274,0-6.113-2.827-6.113-6.711c0-4.596,2.068-6.343,6.894-6.343h5.63
	v-2.298c0-2.505-0.712-3.378-4.481-3.378c-2.185,0.022-4.363,0.253-6.504,0.689l-0.712-4.298c2.625-0.692,5.328-1.048,8.043-1.057
	c7.354,0,9.537,2.481,9.537,8.135L316.564,202.364z M310.681,193.861h-4.343c-1.908,0-2.436,0.506-2.436,2.299
	c0,1.792,0.528,2.298,2.298,2.298c1.554-0.01,3.08-0.413,4.436-1.172L310.681,193.861z M328.859,202.8
	c-2.744-0.043-5.468-0.477-8.089-1.286l0.827-4.321c2.245,0.633,4.563,0.965,6.895,0.988c2.597,0,2.987-0.551,2.987-2.298
	c0-1.746-0.299-2.068-4.091-2.965c-5.745-1.332-6.412-2.711-6.412-7.078c0-4.366,2.068-6.503,8.756-6.503
	c2.366,0.001,4.724,0.263,7.032,0.781l-0.575,4.596c-2.133-0.377-4.292-0.592-6.458-0.644c-2.551,0-2.987,0.552-2.987,1.931
	c0,1.815,0.161,1.953,3.332,2.734c6.55,1.678,7.17,2.506,7.17,7.125S335.938,202.8,328.859,202.8z M355.77,202.341v-15.627
	c0-1.219-0.528-1.815-1.884-1.815c-2.144,0.227-4.221,0.875-6.113,1.907v15.627h-5.883v-31.806l5.883,0.873v9.974
	c2.677-1.307,5.596-2.043,8.572-2.16c3.907,0,5.309,2.62,5.309,6.642v16.34L355.77,202.341z M366.571,176.625v-5.516h5.883v5.516
	H366.571z M366.571,202.341V179.82h5.883v22.521H366.571z M377.143,180.003c0-5.653,3.424-8.917,11.49-8.917
	c2.933-0.001,5.855,0.338,8.71,1.012l-0.667,5.033c-2.594-0.471-5.223-0.731-7.859-0.782c-4.182,0-5.538,1.379-5.538,4.597v11.835
	c0,3.286,1.356,4.597,5.538,4.597c2.638-0.059,5.266-0.328,7.859-0.805l0.667,5.056c-2.854,0.674-5.777,1.013-8.71,1.012
	c-7.997,0-11.49-3.286-11.49-8.917V180.003z M410.258,202.8c-8.043,0-10.203-4.251-10.203-8.87v-5.677
	c0-4.596,2.16-8.87,10.203-8.87c8.044,0,10.296,4.251,10.296,8.87v5.699C420.554,198.572,418.256,202.8,410.258,202.8z
	 M410.258,184.162c-3.125,0-4.344,1.333-4.344,3.884v6.067c0,2.528,1.219,3.884,4.344,3.884c3.126,0,4.344-1.355,4.344-3.884v-6.044
	c0-2.551-1.218-3.884-4.344-3.884V184.162z M437.008,184.531c-2.146,0.939-4.221,2.038-6.204,3.286v14.524h-5.884V179.82h4.964
	l0.391,2.481c1.918-1.241,3.988-2.23,6.159-2.941L437.008,184.531z M460.495,194.849c0,4.987-2.299,7.951-7.745,7.951
	c-2.106-0.02-4.207-0.235-6.273-0.643v9.192l-5.86,0.873V179.82h4.596l0.575,1.884c2.174-1.521,4.77-2.324,7.423-2.298
	c4.596,0,7.216,2.666,7.216,7.813L460.495,194.849z M446.477,197.4c1.716,0.365,3.463,0.565,5.217,0.598
	c2.114,0,2.941-0.988,2.941-3.011v-7.928c0-1.862-0.735-2.873-2.896-2.873c-1.938,0.059-3.795,0.781-5.263,2.045V197.4z"/>
<g>
	<g>
		<path d="M1099.078,172.845v169.814h21.851V172.845H1099.078L1099.078,172.845z M1159.504,172.845v169.814h21.852V172.845H1159.504
			L1159.504,172.845z M1210.76,334.432c9.036,5.935,26.841,10.926,43.566,10.926c39.924,0,59.481-22.66,59.481-49.097
			c0-24.953-14.566-39.115-43.565-49.905c-23.604-9.038-33.586-16.86-33.586-32.642c0-11.869,8.633-25.492,32.236-25.492
			c15.377,0,26.842,4.99,32.237,8.227l5.935-17.669c-7.689-4.046-19.963-8.228-37.632-8.228c-33.181,0-54.896,19.559-54.896,46.264
			c0,24.009,17.265,38.171,44.915,48.153c23.199,8.632,32.236,17.669,32.236,33.585c0,17.265-13.218,29.135-35.474,29.135
			c-14.972,0-29.538-4.991-39.52-10.926L1210.76,334.432z"/>
	</g>
	<g>
		<path fill="#F25022" d="M902.691,171.092h82.143v82.143h-82.143V171.092z"/>
		<path fill="#7FBA00" d="M993.196,171.092h82.143v82.143h-82.143V171.092L993.196,171.092z"/>
		<path fill="#00A4EF" d="M902.691,262.001h82.143v82.008h-82.143V262.001z"/>
		<path fill="#FFB900" d="M993.196,262.001h82.143v82.008h-82.143V262.001L993.196,262.001z"/>
	</g>
</g>
<g>
	<path d="M787.749,211.307v46.999h45.199v12h-45.199v47.399h-12.8v-47.399H729.75v-12h45.199v-46.999H787.749z"/>
</g>
</svg>
